<?xml version="1.0" encoding="UTF-8"?>
<svg xmlns="http://www.w3.org/2000/svg" xmlns:xlink="http://www.w3.org/1999/xlink" width="337.45pt" height="122.73pt" viewBox="0 0 337.45 122.73" version="1.1">
<defs>
<clipPath id="clip1">
  <path d="M 119 76 L 337.449219 76 L 337.449219 78 L 119 78 Z M 119 76 "/>
</clipPath>
<clipPath id="clip2">
  <path d="M 332 91 L 337.449219 91 L 337.449219 99 L 332 99 Z M 332 91 "/>
</clipPath>
<clipPath id="clip3">
  <path d="M 314 38 L 337.449219 38 L 337.449219 65 L 314 65 Z M 314 38 "/>
</clipPath>
<clipPath id="clip4">
  <path d="M 41 20 L 54 20 L 54 122.730469 L 41 122.730469 Z M 41 20 "/>
</clipPath>
</defs>
<g id="surface1">
<g clip-path="url(#clip1)" clip-rule="nonzero">
<path style=" stroke:none;fill-rule:nonzero;fill:rgb(13.299561%,11.799622%,12.5%);fill-opacity:1;" d="M 119.195313 77.671875 L 337.445313 77.671875 L 337.445313 76.1875 L 119.195313 76.1875 Z M 119.195313 77.671875 "/>
</g>
<path style=" stroke:none;fill-rule:nonzero;fill:rgb(13.299561%,11.799622%,12.5%);fill-opacity:1;" d="M 119.191406 89.300781 L 120.371094 89.300781 L 121.859375 96.648438 L 121.882813 96.648438 L 123.488281 89.300781 L 124.957031 89.300781 L 126.582031 96.648438 L 126.59375 96.648438 L 128.1875 89.300781 L 129.28125 89.300781 L 127.296875 98.339844 L 125.953125 98.339844 L 124.25 90.589844 L 124.21875 90.589844 L 122.507813 98.339844 L 121.164063 98.339844 "/>
<path style=" stroke:none;fill-rule:nonzero;fill:rgb(13.299561%,11.799622%,12.5%);fill-opacity:1;" d="M 132.648438 91.746094 L 133.695313 91.746094 L 133.695313 98.335938 L 132.648438 98.335938 Z M 133.773438 90.304688 L 132.566406 90.304688 L 132.566406 89.027344 L 133.773438 89.027344 Z M 133.773438 90.304688 "/>
<path style=" stroke:none;fill-rule:nonzero;fill:rgb(13.299561%,11.799622%,12.5%);fill-opacity:1;" d="M 137.46875 97.082031 C 137.960938 97.375 138.488281 97.546875 139.015625 97.546875 C 139.859375 97.546875 140.285156 97.128906 140.285156 96.636719 C 140.285156 96.167969 140.027344 95.859375 139.417969 95.582031 L 138.71875 95.261719 C 137.757813 94.84375 137.410156 94.410156 137.410156 93.582031 C 137.410156 92.472656 138.273438 91.648438 139.558594 91.648438 C 140.09375 91.648438 140.582031 91.753906 140.941406 91.894531 L 140.875 92.8125 C 140.539063 92.671875 140.09375 92.542969 139.597656 92.542969 C 138.878906 92.542969 138.488281 92.925781 138.488281 93.433594 C 138.488281 93.976563 138.890625 94.265625 139.625 94.550781 L 139.988281 94.714844 C 140.808594 95.03125 141.324219 95.570313 141.324219 96.382813 C 141.324219 97.53125 140.699219 98.449219 139.15625 98.449219 C 138.488281 98.449219 137.878906 98.300781 137.390625 98.054688 "/>
<path style=" stroke:none;fill-rule:nonzero;fill:rgb(13.299561%,11.799622%,12.5%);fill-opacity:1;" d="M 147.101563 92.542969 C 146.117188 92.542969 145.667969 93.375 145.667969 95.0625 C 145.667969 96.714844 146.117188 97.546875 147.101563 97.546875 C 148.113281 97.546875 148.570313 96.714844 148.570313 95.0625 C 148.570313 93.375 148.113281 92.542969 147.101563 92.542969 M 149.644531 97.128906 C 149.644531 97.53125 149.714844 97.949219 149.714844 98.339844 L 148.65625 98.339844 L 148.617188 97.390625 L 148.59375 97.390625 C 148.316406 97.910156 147.816406 98.457031 146.84375 98.457031 C 145.492188 98.457031 144.585938 97.335938 144.585938 95.0625 C 144.585938 92.761719 145.492188 91.644531 146.84375 91.644531 C 147.601563 91.644531 148.101563 91.953125 148.535156 92.652344 L 148.570313 92.652344 L 148.570313 88.628906 L 149.644531 88.628906 "/>
<path style=" stroke:none;fill-rule:nonzero;fill:rgb(13.299561%,11.799622%,12.5%);fill-opacity:1;" d="M 155.792969 97.546875 C 156.855469 97.546875 157.3125 96.714844 157.3125 95.0625 C 157.3125 93.375 156.855469 92.542969 155.792969 92.542969 C 154.765625 92.542969 154.300781 93.375 154.300781 95.0625 C 154.300781 96.714844 154.765625 97.546875 155.792969 97.546875 M 155.792969 91.648438 C 157.5625 91.648438 158.496094 92.972656 158.496094 95.0625 C 158.496094 97.128906 157.5625 98.449219 155.792969 98.449219 C 154.058594 98.449219 153.160156 97.128906 153.160156 95.0625 C 153.160156 92.972656 154.058594 91.648438 155.792969 91.648438 "/>
<path style=" stroke:none;fill-rule:nonzero;fill:rgb(13.299561%,11.799622%,12.5%);fill-opacity:1;" d="M 162.078125 93.152344 C 162.078125 92.6875 162.039063 92.214844 162.015625 91.75 L 163.085938 91.75 L 163.121094 92.730469 L 163.148438 92.730469 C 163.480469 91.980469 164.050781 91.640625 164.785156 91.640625 C 165.476563 91.640625 165.988281 92.027344 166.320313 92.6875 C 166.675781 92.035156 167.179688 91.640625 167.9375 91.640625 C 169.0625 91.640625 169.867188 92.328125 169.867188 93.773438 L 169.867188 98.339844 L 168.769531 98.339844 L 168.769531 93.816406 C 168.769531 92.972656 168.394531 92.589844 167.730469 92.589844 C 166.972656 92.589844 166.484375 93.085938 166.484375 94.265625 L 166.484375 98.339844 L 165.433594 98.339844 L 165.433594 93.816406 C 165.433594 92.972656 165.066406 92.589844 164.40625 92.589844 C 163.605469 92.589844 163.175781 93.085938 163.175781 94.265625 L 163.175781 98.339844 L 162.078125 98.339844 "/>
<path style=" stroke:none;fill-rule:nonzero;fill:rgb(13.299561%,11.799622%,12.5%);fill-opacity:1;" d="M 180.050781 92.589844 C 180.703125 92.589844 181.199219 93.105469 181.199219 93.726563 C 181.199219 94.378906 180.703125 94.851563 180.050781 94.851563 C 179.441406 94.851563 178.933594 94.378906 178.933594 93.726563 C 178.933594 93.105469 179.441406 92.589844 180.050781 92.589844 "/>
<path style=" stroke:none;fill-rule:nonzero;fill:rgb(13.299561%,11.799622%,12.5%);fill-opacity:1;" d="M 189.316406 98.335938 L 190.453125 98.335938 L 190.453125 89.300781 L 189.316406 89.300781 Z M 189.316406 98.335938 "/>
<path style=" stroke:none;fill-rule:nonzero;fill:rgb(13.299561%,11.799622%,12.5%);fill-opacity:1;" d="M 194.589844 93.152344 C 194.589844 92.6875 194.558594 92.214844 194.53125 91.75 L 195.566406 91.75 L 195.617188 92.730469 L 195.625 92.730469 C 196.003906 91.980469 196.546875 91.640625 197.320313 91.640625 C 198.46875 91.640625 199.234375 92.328125 199.234375 93.773438 L 199.234375 98.339844 L 198.152344 98.339844 L 198.152344 94.078125 C 198.152344 93.027344 197.769531 92.589844 197.0625 92.589844 C 196.226563 92.589844 195.679688 93.175781 195.679688 94.378906 L 195.679688 98.339844 L 194.589844 98.339844 "/>
<path style=" stroke:none;fill-rule:nonzero;fill:rgb(13.299561%,11.799622%,12.5%);fill-opacity:1;" d="M 206.082031 98.277344 C 205.84375 98.359375 205.484375 98.453125 205.171875 98.453125 C 204.203125 98.453125 203.660156 98.050781 203.660156 96.871094 L 203.660156 92.636719 L 202.601563 92.636719 L 202.601563 91.75 L 203.660156 91.75 L 203.660156 90.378906 L 204.730469 90.046875 L 204.730469 91.75 L 206.082031 91.75 L 206.082031 92.636719 L 204.730469 92.636719 L 204.730469 96.527344 C 204.730469 97.289063 204.9375 97.546875 205.425781 97.546875 C 205.6875 97.546875 205.914063 97.484375 206.082031 97.390625 "/>
<path style=" stroke:none;fill-rule:nonzero;fill:rgb(13.299561%,11.799622%,12.5%);fill-opacity:1;" d="M 212.835938 94.542969 C 212.835938 93.152344 212.394531 92.472656 211.535156 92.472656 C 210.828125 92.472656 210.183594 93.015625 210.171875 94.542969 Z M 210.171875 95.378906 C 210.171875 96.902344 210.78125 97.609375 211.988281 97.609375 C 212.527344 97.609375 213.132813 97.351563 213.507813 97.082031 L 213.546875 98.054688 C 213.027344 98.300781 212.367188 98.453125 211.703125 98.453125 C 209.953125 98.453125 209.039063 97.128906 209.039063 95.058594 C 209.039063 92.96875 209.953125 91.644531 211.617188 91.644531 C 213.097656 91.644531 213.917969 92.847656 213.917969 94.769531 L 213.917969 95.378906 "/>
<path style=" stroke:none;fill-rule:nonzero;fill:rgb(13.299561%,11.799622%,12.5%);fill-opacity:1;" d="M 219.691406 97.546875 C 220.703125 97.546875 221.140625 96.714844 221.140625 95.0625 C 221.140625 93.375 220.703125 92.542969 219.691406 92.542969 C 218.675781 92.542969 218.246094 93.375 218.246094 95.0625 C 218.246094 96.714844 218.675781 97.546875 219.691406 97.546875 M 222.230469 98.644531 C 222.230469 100.472656 220.847656 101.246094 219.394531 101.246094 C 218.847656 101.246094 217.960938 101.007813 217.484375 100.820313 L 217.515625 99.71875 C 217.984375 100.035156 218.734375 100.296875 219.332031 100.296875 C 220.660156 100.296875 221.199219 99.507813 221.199219 98.355469 L 221.199219 97.335938 L 221.171875 97.335938 C 220.75 98.089844 220.148438 98.449219 219.441406 98.449219 C 218.046875 98.449219 217.148438 97.335938 217.148438 95.0625 C 217.148438 92.761719 218.046875 91.648438 219.539063 91.648438 C 220.179688 91.648438 220.792969 92.058594 221.171875 92.695313 L 221.199219 92.695313 L 221.238281 91.75 L 222.289063 91.75 C 222.261719 92.125 222.230469 92.542969 222.230469 92.941406 "/>
<path style=" stroke:none;fill-rule:nonzero;fill:rgb(13.299561%,11.799622%,12.5%);fill-opacity:1;" d="M 226.039063 93.152344 C 226.039063 92.6875 226.023438 92.214844 225.996094 91.75 L 227.039063 91.75 L 227.089844 92.773438 L 227.128906 92.773438 C 227.476563 91.980469 228.027344 91.640625 228.988281 91.640625 L 228.988281 92.730469 C 228.859375 92.695313 228.710938 92.6875 228.578125 92.6875 C 227.753906 92.6875 227.140625 93.429688 227.140625 94.84375 L 227.140625 98.339844 L 226.039063 98.339844 "/>
<path style=" stroke:none;fill-rule:nonzero;fill:rgb(13.299561%,11.799622%,12.5%);fill-opacity:1;" d="M 232.335938 91.746094 L 233.425781 91.746094 L 233.425781 98.335938 L 232.335938 98.335938 Z M 233.480469 90.304688 L 232.292969 90.304688 L 232.292969 89.027344 L 233.480469 89.027344 Z M 233.480469 90.304688 "/>
<path style=" stroke:none;fill-rule:nonzero;fill:rgb(13.299561%,11.799622%,12.5%);fill-opacity:1;" d="M 240.371094 98.277344 C 240.121094 98.359375 239.742188 98.453125 239.460938 98.453125 C 238.480469 98.453125 237.914063 98.050781 237.914063 96.871094 L 237.914063 92.636719 L 236.886719 92.636719 L 236.886719 91.75 L 237.914063 91.75 L 237.914063 90.378906 L 238.996094 90.046875 L 238.996094 91.75 L 240.371094 91.75 L 240.371094 92.636719 L 238.996094 92.636719 L 238.996094 96.527344 C 238.996094 97.289063 239.203125 97.546875 239.6875 97.546875 C 240 97.546875 240.164063 97.484375 240.371094 97.390625 "/>
<path style=" stroke:none;fill-rule:nonzero;fill:rgb(13.299561%,11.799622%,12.5%);fill-opacity:1;" d="M 245.726563 99.703125 C 245.398438 100.824219 244.933594 101.242188 244.097656 101.242188 C 243.816406 101.242188 243.566406 101.226563 243.355469 101.140625 L 243.402344 100.179688 C 243.566406 100.253906 243.75 100.296875 244.023438 100.296875 C 244.324219 100.296875 244.558594 100.144531 244.710938 99.460938 L 244.976563 98.457031 L 242.90625 91.75 L 244.023438 91.75 L 245.539063 97.128906 L 245.554688 97.128906 L 246.925781 91.75 L 247.988281 91.75 "/>
<path style=" stroke:none;fill-rule:nonzero;fill:rgb(13.299561%,11.799622%,12.5%);fill-opacity:1;" d="M 257.539063 92.589844 C 258.203125 92.589844 258.722656 93.105469 258.722656 93.726563 C 258.722656 94.378906 258.203125 94.851563 257.539063 94.851563 C 256.910156 94.851563 256.425781 94.378906 256.425781 93.726563 C 256.425781 93.105469 256.910156 92.589844 257.539063 92.589844 "/>
<path style=" stroke:none;fill-rule:nonzero;fill:rgb(13.299561%,11.799622%,12.5%);fill-opacity:1;" d="M 266.800781 89.300781 L 271.023438 89.300781 L 271.023438 90.304688 L 267.945313 90.304688 L 267.945313 93.152344 L 270.890625 93.152344 L 270.890625 94.15625 L 267.945313 94.15625 L 267.945313 97.375 L 271.1875 97.375 L 271.1875 98.339844 L 266.800781 98.339844 "/>
<path style=" stroke:none;fill-rule:nonzero;fill:rgb(13.299561%,11.799622%,12.5%);fill-opacity:1;" d="M 276.246094 94.796875 L 274.464844 91.753906 L 275.65625 91.753906 L 276.917969 94.140625 L 278.210938 91.753906 L 279.398438 91.753906 L 277.550781 94.84375 L 279.582031 98.339844 L 278.320313 98.339844 L 276.855469 95.617188 L 275.472656 98.339844 L 274.261719 98.339844 "/>
<path style=" stroke:none;fill-rule:nonzero;fill:rgb(13.299561%,11.799622%,12.5%);fill-opacity:1;" d="M 286.71875 92.894531 C 286.332031 92.683594 285.949219 92.585938 285.460938 92.585938 C 284.390625 92.585938 283.625 93.316406 283.625 95.105469 C 283.625 96.648438 284.367188 97.503906 285.425781 97.503906 C 285.929688 97.503906 286.390625 97.363281 286.78125 97.15625 L 286.824219 98.164063 C 286.484375 98.300781 285.902344 98.453125 285.425781 98.453125 C 283.449219 98.453125 282.511719 96.980469 282.511719 95.105469 C 282.511719 92.972656 283.601563 91.648438 285.460938 91.648438 C 285.902344 91.648438 286.398438 91.753906 286.78125 91.894531 "/>
<path style=" stroke:none;fill-rule:nonzero;fill:rgb(13.299561%,11.799622%,12.5%);fill-opacity:1;" d="M 293.652344 94.542969 C 293.652344 93.152344 293.230469 92.472656 292.363281 92.472656 C 291.671875 92.472656 291.0625 93.015625 291.023438 94.542969 Z M 291.023438 95.378906 C 291.023438 96.902344 291.625 97.609375 292.828125 97.609375 C 293.398438 97.609375 293.972656 97.351563 294.351563 97.082031 L 294.394531 98.054688 C 293.867188 98.300781 293.203125 98.453125 292.535156 98.453125 C 290.78125 98.453125 289.882813 97.128906 289.882813 95.058594 C 289.882813 92.96875 290.78125 91.644531 292.4375 91.644531 C 293.949219 91.644531 294.773438 92.847656 294.773438 94.769531 L 294.773438 95.378906 "/>
<path style=" stroke:none;fill-rule:nonzero;fill:rgb(13.299561%,11.799622%,12.5%);fill-opacity:1;" d="M 298.421875 98.335938 L 299.503906 98.335938 L 299.503906 88.628906 L 298.421875 88.628906 Z M 298.421875 98.335938 "/>
<path style=" stroke:none;fill-rule:nonzero;fill:rgb(13.299561%,11.799622%,12.5%);fill-opacity:1;" d="M 303.640625 98.335938 L 304.722656 98.335938 L 304.722656 88.628906 L 303.640625 88.628906 Z M 303.640625 98.335938 "/>
<path style=" stroke:none;fill-rule:nonzero;fill:rgb(13.299561%,11.799622%,12.5%);fill-opacity:1;" d="M 312.226563 94.542969 C 312.226563 93.152344 311.789063 92.472656 310.914063 92.472656 C 310.222656 92.472656 309.597656 93.015625 309.558594 94.542969 Z M 309.558594 95.378906 C 309.558594 96.902344 310.175781 97.609375 311.386719 97.609375 C 311.9375 97.609375 312.519531 97.351563 312.902344 97.082031 L 312.945313 98.054688 C 312.449219 98.300781 311.753906 98.453125 311.082031 98.453125 C 309.347656 98.453125 308.441406 97.128906 308.441406 95.058594 C 308.441406 92.96875 309.347656 91.644531 311.011719 91.644531 C 312.480469 91.644531 313.3125 92.847656 313.3125 94.769531 L 313.3125 95.378906 "/>
<path style=" stroke:none;fill-rule:nonzero;fill:rgb(13.299561%,11.799622%,12.5%);fill-opacity:1;" d="M 316.855469 93.152344 C 316.855469 92.6875 316.84375 92.214844 316.84375 91.75 L 317.867188 91.75 L 317.921875 92.730469 C 318.289063 91.980469 318.832031 91.640625 319.589844 91.640625 C 320.78125 91.640625 321.527344 92.328125 321.527344 93.773438 L 321.527344 98.339844 L 320.445313 98.339844 L 320.445313 94.078125 C 320.445313 93.027344 320.054688 92.589844 319.351563 92.589844 C 318.511719 92.589844 317.972656 93.175781 317.972656 94.378906 L 317.972656 98.339844 L 316.855469 98.339844 "/>
<path style=" stroke:none;fill-rule:nonzero;fill:rgb(13.299561%,11.799622%,12.5%);fill-opacity:1;" d="M 329.347656 92.894531 C 328.960938 92.683594 328.609375 92.585938 328.097656 92.585938 C 327.027344 92.585938 326.273438 93.316406 326.273438 95.105469 C 326.273438 96.648438 327.007813 97.503906 328.074219 97.503906 C 328.570313 97.503906 329.007813 97.363281 329.402344 97.15625 L 329.449219 98.164063 C 329.136719 98.300781 328.550781 98.453125 328.074219 98.453125 C 326.085938 98.453125 325.144531 96.980469 325.144531 95.105469 C 325.144531 92.972656 326.246094 91.648438 328.097656 91.648438 C 328.550781 91.648438 329.058594 91.753906 329.402344 91.894531 "/>
<g clip-path="url(#clip2)" clip-rule="nonzero">
<path style=" stroke:none;fill-rule:nonzero;fill:rgb(13.299561%,11.799622%,12.5%);fill-opacity:1;" d="M 336.308594 94.542969 C 336.308594 93.152344 335.871094 92.472656 335.011719 92.472656 C 334.3125 92.472656 333.691406 93.015625 333.648438 94.542969 Z M 333.648438 95.378906 C 333.648438 96.902344 334.261719 97.609375 335.472656 97.609375 C 336.019531 97.609375 336.621094 97.351563 336.980469 97.082031 L 337.046875 98.054688 C 336.515625 98.300781 335.855469 98.453125 335.191406 98.453125 C 333.421875 98.453125 332.511719 97.128906 332.511719 95.058594 C 332.511719 92.96875 333.421875 91.644531 335.085938 91.644531 C 336.582031 91.644531 337.40625 92.847656 337.40625 94.769531 L 337.40625 95.378906 "/>
</g>
<path style=" stroke:none;fill-rule:nonzero;fill:rgb(13.299561%,11.799622%,12.5%);fill-opacity:1;" d="M 127.816406 2.898438 L 124.121094 2.898438 C 121.859375 2.898438 120.722656 3.644531 120.015625 7.246094 L 119.191406 7.246094 C 119.476563 5.054688 119.703125 2.878906 119.863281 0.652344 L 139.765625 0.652344 C 139.90625 2.878906 140.117188 5.054688 140.40625 7.246094 L 139.605469 7.246094 C 138.890625 3.644531 137.777344 2.898438 135.488281 2.898438 L 131.769531 2.898438 L 131.769531 23.558594 C 131.769531 24.933594 132.273438 25.644531 134.320313 25.890625 L 134.320313 26.453125 C 132.761719 26.453125 131.023438 26.234375 129.800781 26.234375 C 128.589844 26.234375 126.871094 26.453125 125.28125 26.453125 L 125.28125 25.890625 C 127.320313 25.644531 127.816406 24.933594 127.816406 23.558594 "/>
<path style=" stroke:none;fill-rule:nonzero;fill:rgb(13.299561%,11.799622%,12.5%);fill-opacity:1;" d="M 154.765625 14.609375 L 151.195313 4.613281 L 151.117188 4.613281 L 147.515625 14.609375 Z M 139.488281 25.890625 C 140.875 25.839844 141.191406 25.460938 142.019531 23.25 L 149.175781 3.546875 C 149.320313 3.164063 149.433594 2.714844 149.433594 2.226563 C 149.433594 1.289063 149.050781 1.179688 148.148438 0.980469 L 148.148438 0.402344 C 149.132813 0.535156 150.203125 0.652344 151.195313 0.652344 C 151.894531 0.652344 152.621094 0.535156 153.300781 0.402344 C 153.476563 1.546875 153.972656 2.957031 154.683594 4.84375 L 161.496094 22.628906 C 162.53125 25.335938 162.746094 25.609375 164.214844 25.890625 L 164.214844 26.453125 C 163.15625 26.453125 162.140625 26.230469 161.085938 26.230469 C 159.511719 26.230469 157.960938 26.453125 156.371094 26.453125 L 156.371094 25.890625 C 157.800781 25.78125 158.238281 25.460938 158.238281 24.6875 C 158.238281 23.960938 157.996094 23.28125 157.152344 21.0625 L 155.503906 16.625 L 146.792969 16.625 L 144.839844 22.1875 C 144.453125 23.28125 144.171875 24.339844 144.171875 24.894531 C 144.171875 25.503906 144.605469 25.839844 146.289063 25.890625 L 146.289063 26.453125 C 145.242188 26.453125 144.171875 26.230469 143.097656 26.230469 C 141.921875 26.230469 140.679688 26.453125 139.488281 26.453125 "/>
<path style=" stroke:none;fill-rule:nonzero;fill:rgb(13.299561%,11.799622%,12.5%);fill-opacity:1;" d="M 162.691406 3.03125 C 162.027344 1.882813 161.53125 1.210938 160.054688 0.980469 L 160.054688 0.402344 C 161.53125 0.402344 162.929688 0.652344 164.34375 0.652344 C 165.703125 0.652344 167.074219 0.402344 168.484375 0.402344 L 168.484375 0.980469 C 167.195313 1.035156 166.609375 1.265625 166.609375 1.921875 C 166.609375 2.296875 166.734375 2.742188 167.074219 3.46875 L 172.570313 14.214844 L 177.683594 3.421875 C 177.953125 2.742188 177.953125 2.355469 177.953125 2.027344 C 177.953125 1.34375 177.402344 1.0625 176.035156 0.980469 L 176.035156 0.402344 C 177.074219 0.402344 178.695313 0.652344 179.980469 0.652344 C 180.925781 0.652344 181.902344 0.402344 183.207031 0.402344 L 183.207031 0.980469 C 181.65625 1.0625 181.148438 1.738281 180.183594 3.675781 L 173.875 16.339844 L 173.875 23.558594 C 173.875 24.933594 174.371094 25.644531 176.425781 25.890625 L 176.425781 26.453125 C 174.851563 26.453125 173.113281 26.230469 171.917969 26.230469 C 170.71875 26.230469 168.972656 26.453125 167.402344 26.453125 L 167.402344 25.890625 C 169.449219 25.644531 169.945313 24.933594 169.945313 23.558594 L 169.945313 16.339844 "/>
<path style=" stroke:none;fill-rule:nonzero;fill:rgb(13.299561%,11.799622%,12.5%);fill-opacity:1;" d="M 188.578125 2.671875 C 188.578125 1.546875 188.101563 1.214844 186.546875 0.980469 L 186.546875 0.402344 C 187.382813 0.402344 189.039063 0.652344 190.535156 0.652344 C 192.074219 0.652344 193.738281 0.402344 195.117188 0.402344 L 195.117188 0.980469 C 193.027344 1.144531 192.527344 1.742188 192.527344 2.671875 L 192.527344 23.960938 L 200.183594 23.960938 C 203.886719 23.960938 204.996094 22.921875 205.359375 19.160156 L 206.082031 19.160156 C 205.890625 21.507813 205.785156 23.871094 205.746094 26.230469 L 186.546875 26.230469 L 186.546875 25.644531 C 188.101563 25.414063 188.578125 25.082031 188.578125 23.960938 "/>
<path style=" stroke:none;fill-rule:nonzero;fill:rgb(13.299561%,11.799622%,12.5%);fill-opacity:1;" d="M 222.058594 24.128906 C 226.320313 24.128906 230.488281 20.980469 230.488281 14.574219 C 230.488281 7.507813 225.628906 2.746094 220.519531 2.746094 C 217.570313 2.746094 212.164063 5.097656 212.164063 12.5 C 212.164063 18.203125 215.839844 24.128906 222.058594 24.128906 M 221.683594 0 C 230.621094 0 234.183594 7.214844 234.183594 13.125 C 234.183594 20.050781 229.074219 26.855469 221.085938 26.855469 C 212.949219 26.855469 208.464844 20.800781 208.464844 13.519531 C 208.464844 5.597656 215.433594 0 221.683594 0 "/>
<path style=" stroke:none;fill-rule:nonzero;fill:rgb(13.299561%,11.799622%,12.5%);fill-opacity:1;" d="M 238.300781 2.898438 C 238.300781 1.78125 237.808594 1.449219 236.242188 1.214844 L 236.242188 0.652344 L 247.925781 0.652344 C 253.289063 0.652344 255.191406 3.449219 255.191406 6.785156 C 255.191406 10.90625 251.695313 13.3125 247.832031 13.644531 L 255.273438 23.25 C 256.484375 24.773438 257.480469 25.78125 258.660156 25.890625 L 258.660156 26.453125 C 257.917969 26.453125 257.238281 26.234375 256.566406 26.234375 C 255.503906 26.234375 254.46875 26.453125 253.460938 26.453125 C 253.011719 26.332031 252.59375 25.6875 249.339844 21.128906 L 244.128906 14.175781 C 243.648438 13.515625 243.335938 13.152344 243.335938 12.984375 C 243.335938 12.742188 243.777344 12.589844 244.097656 12.589844 C 248.285156 12.589844 251.226563 10.867188 251.226563 7.300781 C 251.226563 3.46875 247.816406 2.898438 244.433594 2.898438 L 242.242188 2.898438 L 242.242188 24.203125 C 242.242188 25.332031 242.71875 25.644531 244.300781 25.890625 L 244.300781 26.453125 C 243.460938 26.453125 241.816406 26.234375 240.269531 26.234375 C 238.746094 26.234375 237.074219 26.453125 236.242188 26.453125 L 236.242188 25.890625 C 237.808594 25.644531 238.300781 25.332031 238.300781 24.203125 "/>
<path style=" stroke:none;fill-rule:nonzero;fill:rgb(13.299561%,11.799622%,12.5%);fill-opacity:1;" d="M 265.128906 0.652344 L 265.128906 1.621094 C 265.128906 7.140625 261.734375 9.214844 261.523438 9.214844 C 261.363281 9.214844 261.199219 9.078125 261.199219 9.003906 C 261.199219 8.597656 262.167969 7.21875 262.167969 4.535156 C 262.167969 3.230469 261.875 1.921875 261.46875 0.652344 "/>
<path style=" stroke:none;fill-rule:nonzero;fill:rgb(13.299561%,11.799622%,12.5%);fill-opacity:1;" d="M 270.632813 18.710938 C 271.601563 22.589844 274.59375 24.605469 278.546875 24.605469 C 281.46875 24.605469 284.835938 23.023438 284.835938 19.4375 C 284.835938 16.214844 282.902344 15.566406 280.101563 14.996094 C 273.160156 13.644531 269.445313 12.390625 269.445313 7.480469 C 269.445313 3.46875 273.597656 0 280.101563 0 C 281.808594 0 285.355469 0.441406 286.8125 1.347656 C 286.765625 3.1875 286.863281 5.097656 286.964844 6.9375 L 286.164063 6.9375 C 285.609375 3.445313 282.292969 2.269531 279.46875 2.269531 C 275.113281 2.269531 272.925781 4.316406 272.925781 6.855469 C 272.925781 9.761719 274.480469 10.203125 279.410156 11.214844 C 284.472656 12.222656 288.289063 13.25 288.289063 18.601563 C 288.289063 23.070313 284.90625 26.855469 277.414063 26.855469 C 274.921875 26.855469 272.363281 26.386719 270.074219 24.972656 C 270.074219 22.882813 269.992188 20.796875 269.8125 18.710938 "/>
<path style=" stroke:none;fill-rule:nonzero;fill:rgb(13.299561%,11.799622%,12.5%);fill-opacity:1;" d="M 119.191406 38.804688 C 120.457031 38.804688 121.664063 39.058594 122.785156 39.058594 C 124.832031 39.058594 126.109375 38.804688 127.34375 38.804688 L 127.34375 39.367188 C 126.46875 39.40625 125.015625 39.636719 125.015625 41.105469 L 125.015625 56.859375 C 125.015625 61.160156 127.605469 63.242188 130.863281 63.242188 C 134.183594 63.242188 136.765625 61.160156 136.765625 56.859375 L 136.765625 41.105469 C 136.765625 39.636719 135.320313 39.40625 134.421875 39.367188 L 134.421875 38.804688 C 135.6875 38.804688 136.964844 39.058594 139.003906 39.058594 C 140.113281 39.058594 141.351563 38.804688 142.609375 38.804688 L 142.609375 39.367188 C 140.9375 39.503906 140.707031 39.636719 140.707031 41.402344 L 140.707031 56.113281 C 140.707031 62.355469 137.078125 65.257813 130.863281 65.257813 C 124.703125 65.257813 121.0625 62.355469 121.0625 56.113281 L 121.0625 41.402344 C 121.0625 39.636719 120.84375 39.503906 119.191406 39.367188 "/>
<path style=" stroke:none;fill-rule:nonzero;fill:rgb(13.299561%,11.799622%,12.5%);fill-opacity:1;" d="M 148.5625 41.058594 C 148.5625 39.933594 148.101563 39.605469 146.511719 39.367188 L 146.511719 38.804688 C 147.640625 38.804688 148.792969 39.058594 149.933594 39.058594 C 151.046875 39.058594 151.917969 38.804688 152.9375 38.804688 L 166.617188 57.644531 L 166.714844 57.644531 L 166.714844 43.019531 C 166.714844 40.335938 166.082031 39.71875 163.886719 39.367188 L 163.886719 38.804688 C 165.046875 38.804688 166.15625 39.058594 167.292969 39.058594 C 168.617188 39.058594 169.949219 38.804688 171.277344 38.804688 L 171.277344 39.367188 C 169.695313 39.605469 169.214844 39.933594 169.214844 41.058594 L 169.214844 64.847656 L 166.828125 64.847656 L 151.140625 43.242188 L 151.097656 43.242188 L 151.097656 60.601563 C 151.097656 63.320313 151.710938 63.914063 153.894531 64.289063 L 153.894531 64.847656 C 152.773438 64.847656 151.640625 64.597656 150.515625 64.597656 C 149.195313 64.597656 147.851563 64.847656 146.511719 64.847656 L 146.511719 64.289063 C 148.101563 64.046875 148.5625 63.710938 148.5625 62.589844 "/>
<path style=" stroke:none;fill-rule:nonzero;fill:rgb(13.299561%,11.799622%,12.5%);fill-opacity:1;" d="M 174.410156 64.292969 C 175.992188 64.046875 176.492188 63.710938 176.492188 62.589844 L 176.492188 41.058594 C 176.492188 39.9375 175.992188 39.605469 174.410156 39.367188 L 174.410156 38.804688 C 175.257813 38.804688 176.929688 39.054688 178.457031 39.054688 C 179.996094 39.054688 181.640625 38.804688 182.488281 38.804688 L 182.488281 39.367188 C 180.882813 39.605469 180.414063 39.9375 180.414063 41.058594 L 180.414063 62.589844 C 180.414063 63.710938 180.882813 64.046875 182.488281 64.292969 L 182.488281 64.847656 C 181.640625 64.847656 179.996094 64.597656 178.457031 64.597656 C 176.929688 64.597656 175.257813 64.847656 174.410156 64.847656 "/>
<path style=" stroke:none;fill-rule:nonzero;fill:rgb(13.299561%,11.799622%,12.5%);fill-opacity:1;" d="M 185.402344 38.804688 C 186.984375 38.804688 188.65625 39.058594 190.25 39.058594 C 191.410156 39.058594 192.550781 38.804688 193.761719 38.804688 L 193.761719 39.367188 C 192.210938 39.40625 191.71875 39.769531 191.71875 40.539063 C 191.71875 40.960938 191.980469 41.824219 192.152344 42.257813 L 198.597656 60.167969 L 198.695313 60.167969 L 204.449219 42.828125 C 204.789063 41.824219 204.996094 41.058594 204.996094 40.574219 C 204.996094 39.769531 203.882813 39.503906 203.066406 39.367188 L 203.066406 38.804688 C 204.292969 38.804688 205.539063 39.058594 206.773438 39.058594 C 207.765625 39.058594 208.773438 38.804688 209.789063 38.804688 L 209.789063 39.367188 C 208.488281 39.503906 207.765625 40.339844 207.339844 41.542969 L 199.441406 64.847656 L 196.746094 64.847656 L 187.882813 41.175781 C 187.527344 40.296875 187.203125 39.503906 185.402344 39.367188 "/>
<path style=" stroke:none;fill-rule:nonzero;fill:rgb(13.299561%,11.799622%,12.5%);fill-opacity:1;" d="M 214.128906 41.300781 C 214.128906 40.175781 213.628906 39.851563 212.074219 39.609375 L 212.074219 39.054688 L 231.515625 39.054688 C 231.515625 41.019531 231.621094 43.019531 231.742188 45.011719 L 230.972656 45.011719 C 230.46875 41.785156 229.089844 41.300781 227.304688 41.300781 L 218.078125 41.300781 L 218.078125 49.9375 L 223.804688 49.9375 C 225.246094 49.9375 226.078125 49.816406 226.347656 47.585938 L 227.164063 47.585938 C 227.039063 48.746094 226.90625 49.851563 226.90625 51.015625 C 226.90625 52.257813 227.039063 53.351563 227.164063 54.527344 L 226.347656 54.527344 C 226.078125 52.300781 225.246094 52.183594 223.804688 52.183594 L 218.078125 52.183594 L 218.078125 62.355469 L 226.632813 62.355469 C 230.027344 62.355469 231.480469 61.667969 232.191406 57.996094 L 232.949219 57.996094 C 232.777344 60.214844 232.59375 62.394531 232.550781 64.59375 L 212.074219 64.59375 L 212.074219 64.046875 C 213.628906 63.804688 214.128906 63.488281 214.128906 62.355469 "/>
<path style=" stroke:none;fill-rule:nonzero;fill:rgb(13.299561%,11.799622%,12.5%);fill-opacity:1;" d="M 238.160156 41.300781 C 238.160156 40.175781 237.679688 39.851563 236.121094 39.609375 L 236.121094 39.054688 L 247.808594 39.054688 C 253.160156 39.054688 255.019531 41.824219 255.019531 45.175781 C 255.019531 49.257813 251.59375 51.71875 247.710938 52.035156 L 255.128906 61.609375 C 256.351563 63.152344 257.351563 64.152344 258.519531 64.292969 L 258.519531 64.847656 C 257.800781 64.847656 257.105469 64.59375 256.425781 64.59375 C 255.375 64.59375 254.320313 64.847656 253.328125 64.847656 C 252.882813 64.730469 252.464844 64.074219 249.21875 59.523438 L 244.003906 52.535156 C 243.507813 51.917969 243.207031 51.554688 243.207031 51.367188 C 243.207031 51.125 243.648438 50.972656 243.972656 50.972656 C 248.15625 50.972656 251.105469 49.253906 251.105469 45.691406 C 251.105469 41.871094 247.683594 41.300781 244.269531 41.300781 L 242.121094 41.300781 L 242.121094 62.589844 C 242.121094 63.710938 242.609375 64.046875 244.152344 64.292969 L 244.152344 64.847656 C 243.3125 64.847656 241.683594 64.59375 240.136719 64.59375 C 238.597656 64.59375 236.953125 64.847656 236.121094 64.847656 L 236.121094 64.292969 C 237.679688 64.046875 238.160156 63.710938 238.160156 62.589844 "/>
<path style=" stroke:none;fill-rule:nonzero;fill:rgb(13.299561%,11.799622%,12.5%);fill-opacity:1;" d="M 261.542969 57.109375 C 262.507813 60.984375 265.507813 62.980469 269.460938 62.980469 C 272.398438 62.980469 275.738281 61.421875 275.738281 57.832031 C 275.738281 54.613281 273.796875 53.972656 271.023438 53.417969 C 264.097656 52.035156 260.339844 50.789063 260.339844 45.871094 C 260.339844 41.875 264.523438 38.402344 271.023438 38.402344 C 272.734375 38.402344 276.261719 38.828125 277.714844 39.722656 C 277.683594 41.585938 277.730469 43.488281 277.863281 45.332031 L 277.0625 45.332031 C 276.496094 41.828125 273.203125 40.652344 270.382813 40.652344 C 266.042969 40.652344 263.800781 42.722656 263.800781 45.261719 C 263.800781 48.167969 265.363281 48.597656 270.339844 49.605469 C 275.382813 50.609375 279.21875 51.617188 279.21875 56.972656 C 279.21875 61.449219 275.816406 65.261719 268.3125 65.261719 C 265.855469 65.261719 263.289063 64.769531 260.980469 63.359375 C 260.980469 61.265625 260.898438 59.203125 260.746094 57.109375 "/>
<path style=" stroke:none;fill-rule:nonzero;fill:rgb(13.299561%,11.799622%,12.5%);fill-opacity:1;" d="M 281.246094 64.292969 C 282.828125 64.046875 283.316406 63.710938 283.316406 62.589844 L 283.316406 41.058594 C 283.316406 39.9375 282.828125 39.605469 281.246094 39.367188 L 281.246094 38.804688 C 282.121094 38.804688 283.761719 39.054688 285.308594 39.054688 C 286.820313 39.054688 288.460938 38.804688 289.308594 38.804688 L 289.308594 39.367188 C 287.746094 39.605469 287.269531 39.9375 287.269531 41.058594 L 287.269531 62.589844 C 287.269531 63.710938 287.746094 64.046875 289.308594 64.292969 L 289.308594 64.847656 C 288.460938 64.847656 286.820313 64.597656 285.308594 64.597656 C 283.761719 64.597656 282.121094 64.847656 281.246094 64.847656 "/>
<path style=" stroke:none;fill-rule:nonzero;fill:rgb(13.299561%,11.799622%,12.5%);fill-opacity:1;" d="M 299.640625 41.289063 L 295.953125 41.289063 C 293.695313 41.289063 292.554688 42.027344 291.828125 45.625 L 291.011719 45.625 C 291.316406 43.410156 291.539063 41.234375 291.679688 39.039063 L 311.589844 39.039063 C 311.683594 41.234375 311.972656 43.410156 312.253906 45.625 L 311.414063 45.625 C 310.703125 42.027344 309.558594 41.289063 307.328125 41.289063 L 303.59375 41.289063 L 303.59375 61.921875 C 303.59375 63.296875 304.070313 64.027344 306.144531 64.28125 L 306.144531 64.835938 C 304.574219 64.835938 302.847656 64.585938 301.652344 64.585938 C 300.425781 64.585938 298.683594 64.835938 297.121094 64.835938 L 297.121094 64.28125 C 299.164063 64.027344 299.640625 63.296875 299.640625 61.921875 "/>
<g clip-path="url(#clip3)" clip-rule="nonzero">
<path style=" stroke:none;fill-rule:nonzero;fill:rgb(13.299561%,11.799622%,12.5%);fill-opacity:1;" d="M 316.925781 41.402344 C 316.285156 40.234375 315.753906 39.589844 314.296875 39.347656 L 314.296875 38.796875 C 315.753906 38.796875 317.171875 39.039063 318.566406 39.039063 C 319.972656 39.039063 321.324219 38.796875 322.726563 38.796875 L 322.726563 39.347656 C 321.453125 39.375 320.828125 39.628906 320.828125 40.292969 C 320.828125 40.679688 320.964844 41.121094 321.324219 41.851563 L 326.800781 52.578125 L 331.910156 41.765625 C 332.214844 41.121094 332.214844 40.722656 332.214844 40.398438 C 332.214844 39.703125 331.640625 39.417969 330.265625 39.347656 L 330.265625 38.796875 C 331.300781 38.796875 332.929688 39.039063 334.203125 39.039063 C 335.191406 39.039063 336.148438 38.796875 337.445313 38.796875 L 337.445313 39.347656 C 335.914063 39.417969 335.386719 40.09375 334.425781 42.070313 L 328.148438 54.722656 L 328.148438 61.921875 C 328.148438 63.296875 328.609375 64.027344 330.683594 64.277344 L 330.683594 64.832031 C 329.113281 64.832031 327.382813 64.585938 326.160156 64.585938 C 324.949219 64.585938 323.210938 64.832031 321.632813 64.832031 L 321.632813 64.277344 C 323.695313 64.027344 324.171875 63.296875 324.171875 61.921875 L 324.171875 54.722656 "/>
</g>
<path style=" stroke:none;fill-rule:nonzero;fill:rgb(13.299561%,11.799622%,12.5%);fill-opacity:1;" d="M 0 0.671875 L 0 31.71875 L 11.273438 42.996094 L 11.273438 13.398438 L 84.128906 13.398438 L 84.128906 42.996094 L 95.386719 31.71875 L 95.386719 0.671875 "/>
<g clip-path="url(#clip4)" clip-rule="nonzero">
<path style=" stroke:none;fill-rule:nonzero;fill:rgb(13.299561%,11.799622%,12.5%);fill-opacity:1;" d="M 41.472656 20.613281 L 41.472656 116.503906 L 47.699219 122.730469 L 53.933594 116.503906 L 53.933594 20.613281 "/>
</g>
<path style=" stroke:none;fill-rule:nonzero;fill:rgb(89.7995%,14.498901%,16.099548%);fill-opacity:1;" d="M 33.316406 108.34375 L 22.222656 97.261719 L 22.222656 20.613281 L 33.316406 20.613281 Z M 33.316406 108.34375 "/>
<path style=" stroke:none;fill-rule:nonzero;fill:rgb(89.7995%,14.498901%,16.099548%);fill-opacity:1;" d="M 62.09375 108.34375 L 73.183594 97.261719 L 73.183594 20.613281 L 62.09375 20.613281 Z M 62.09375 108.34375 "/>
</g>
</svg>
